<mxfile host="app.diagrams.net" modified="2024-04-22T16:49:23.072Z" agent="Mozilla/5.0 (Macintosh; Intel Mac OS X 10.15; rv:126.0) Gecko/20100101 Firefox/126.0" etag="7oVJHEslifrgzztlto__" version="24.2.7" type="device">
  <diagram name="Page-1" id="h3aggZCf2jayRLg6D3Lx">
    <mxGraphModel dx="1185" dy="661" grid="1" gridSize="10" guides="1" tooltips="1" connect="1" arrows="1" fold="1" page="1" pageScale="1" pageWidth="850" pageHeight="1100" math="0" shadow="0">
      <root>
        <mxCell id="0" />
        <mxCell id="1" parent="0" />
        <mxCell id="5g-IkXWtI9sOoJd1yPif-7" style="edgeStyle=orthogonalEdgeStyle;rounded=0;orthogonalLoop=1;jettySize=auto;html=1;exitX=1;exitY=0.5;exitDx=0;exitDy=0;entryX=0;entryY=0.5;entryDx=0;entryDy=0;" edge="1" parent="1" source="5g-IkXWtI9sOoJd1yPif-1" target="5g-IkXWtI9sOoJd1yPif-5">
          <mxGeometry relative="1" as="geometry" />
        </mxCell>
        <mxCell id="5g-IkXWtI9sOoJd1yPif-8" value="&lt;div style=&quot;font-size: 8px;&quot;&gt;USB (falls nicht eingebaut)&lt;/div&gt;" style="edgeLabel;html=1;align=center;verticalAlign=middle;resizable=0;points=[];fontSize=8;" vertex="1" connectable="0" parent="5g-IkXWtI9sOoJd1yPif-7">
          <mxGeometry x="0.3076" y="1" relative="1" as="geometry">
            <mxPoint x="-21" y="-9" as="offset" />
          </mxGeometry>
        </mxCell>
        <mxCell id="5g-IkXWtI9sOoJd1yPif-1" value="" style="rounded=0;whiteSpace=wrap;html=1;" vertex="1" parent="1">
          <mxGeometry y="220" width="120" height="60" as="geometry" />
        </mxCell>
        <mxCell id="5g-IkXWtI9sOoJd1yPif-2" value="" style="ellipse;whiteSpace=wrap;html=1;aspect=fixed;" vertex="1" parent="1">
          <mxGeometry x="40" y="230" width="40" height="40" as="geometry" />
        </mxCell>
        <mxCell id="5g-IkXWtI9sOoJd1yPif-3" value="" style="ellipse;whiteSpace=wrap;html=1;aspect=fixed;" vertex="1" parent="1">
          <mxGeometry x="10" y="230" width="10" height="10" as="geometry" />
        </mxCell>
        <mxCell id="5g-IkXWtI9sOoJd1yPif-4" value="" style="rounded=0;whiteSpace=wrap;html=1;" vertex="1" parent="1">
          <mxGeometry x="70" y="210" width="30" height="10" as="geometry" />
        </mxCell>
        <mxCell id="5g-IkXWtI9sOoJd1yPif-12" style="edgeStyle=orthogonalEdgeStyle;rounded=0;orthogonalLoop=1;jettySize=auto;html=1;exitX=0.5;exitY=0;exitDx=0;exitDy=0;entryX=0;entryY=0.5;entryDx=0;entryDy=0;" edge="1" parent="1" source="5g-IkXWtI9sOoJd1yPif-5" target="5g-IkXWtI9sOoJd1yPif-9">
          <mxGeometry relative="1" as="geometry" />
        </mxCell>
        <mxCell id="5g-IkXWtI9sOoJd1yPif-13" value="Kamera-Rohdaten" style="edgeLabel;html=1;align=center;verticalAlign=middle;resizable=0;points=[];" vertex="1" connectable="0" parent="5g-IkXWtI9sOoJd1yPif-12">
          <mxGeometry x="0.4148" y="2" relative="1" as="geometry">
            <mxPoint x="-13" y="-8" as="offset" />
          </mxGeometry>
        </mxCell>
        <mxCell id="5g-IkXWtI9sOoJd1yPif-16" style="edgeStyle=orthogonalEdgeStyle;rounded=0;orthogonalLoop=1;jettySize=auto;html=1;exitX=0.5;exitY=1;exitDx=0;exitDy=0;entryX=0.5;entryY=0;entryDx=0;entryDy=0;" edge="1" parent="1" source="5g-IkXWtI9sOoJd1yPif-5" target="5g-IkXWtI9sOoJd1yPif-15">
          <mxGeometry relative="1" as="geometry" />
        </mxCell>
        <mxCell id="5g-IkXWtI9sOoJd1yPif-5" value="&lt;div&gt;Camera Handler&lt;/div&gt;" style="rounded=0;whiteSpace=wrap;html=1;" vertex="1" parent="1">
          <mxGeometry x="230" y="220" width="120" height="60" as="geometry" />
        </mxCell>
        <mxCell id="5g-IkXWtI9sOoJd1yPif-9" value="Frontend" style="rounded=0;whiteSpace=wrap;html=1;" vertex="1" parent="1">
          <mxGeometry x="370" y="40" width="120" height="60" as="geometry" />
        </mxCell>
        <mxCell id="5g-IkXWtI9sOoJd1yPif-14" value="Analyse-Engine" style="rounded=0;whiteSpace=wrap;html=1;dashed=1;dashPattern=8 8;fillColor=none;align=left;verticalAlign=top;" vertex="1" parent="1">
          <mxGeometry x="180" y="300" width="670" height="240" as="geometry" />
        </mxCell>
        <mxCell id="5g-IkXWtI9sOoJd1yPif-20" style="edgeStyle=orthogonalEdgeStyle;rounded=0;orthogonalLoop=1;jettySize=auto;html=1;exitX=1;exitY=0.5;exitDx=0;exitDy=0;entryX=0;entryY=0.5;entryDx=0;entryDy=0;" edge="1" parent="1" source="5g-IkXWtI9sOoJd1yPif-15" target="5g-IkXWtI9sOoJd1yPif-19">
          <mxGeometry relative="1" as="geometry" />
        </mxCell>
        <mxCell id="5g-IkXWtI9sOoJd1yPif-21" value="manipulierte Daten" style="edgeLabel;html=1;align=center;verticalAlign=middle;resizable=0;points=[];" vertex="1" connectable="0" parent="5g-IkXWtI9sOoJd1yPif-20">
          <mxGeometry x="0.0063" relative="1" as="geometry">
            <mxPoint y="-15" as="offset" />
          </mxGeometry>
        </mxCell>
        <mxCell id="5g-IkXWtI9sOoJd1yPif-15" value="&lt;div&gt;OpenCV&lt;/div&gt;" style="rounded=0;whiteSpace=wrap;html=1;" vertex="1" parent="1">
          <mxGeometry x="230" y="365" width="120" height="60" as="geometry" />
        </mxCell>
        <mxCell id="5g-IkXWtI9sOoJd1yPif-17" style="edgeStyle=orthogonalEdgeStyle;rounded=0;orthogonalLoop=1;jettySize=auto;html=1;exitX=0.403;exitY=-0.011;exitDx=0;exitDy=0;entryX=0.663;entryY=0.993;entryDx=0;entryDy=0;entryPerimeter=0;exitPerimeter=0;" edge="1" parent="1" source="5g-IkXWtI9sOoJd1yPif-14" target="5g-IkXWtI9sOoJd1yPif-9">
          <mxGeometry relative="1" as="geometry" />
        </mxCell>
        <mxCell id="5g-IkXWtI9sOoJd1yPif-18" value="Debug-Informationen (z.B. erkannte Handposition)" style="edgeLabel;html=1;align=center;verticalAlign=middle;resizable=0;points=[];horizontal=0;fontSize=10;" vertex="1" connectable="0" parent="5g-IkXWtI9sOoJd1yPif-17">
          <mxGeometry x="0.7828" y="1" relative="1" as="geometry">
            <mxPoint x="11" y="103" as="offset" />
          </mxGeometry>
        </mxCell>
        <mxCell id="5g-IkXWtI9sOoJd1yPif-24" style="edgeStyle=orthogonalEdgeStyle;rounded=0;orthogonalLoop=1;jettySize=auto;html=1;exitX=1;exitY=0.5;exitDx=0;exitDy=0;entryX=0;entryY=0.5;entryDx=0;entryDy=0;" edge="1" parent="1" source="5g-IkXWtI9sOoJd1yPif-19" target="5g-IkXWtI9sOoJd1yPif-23">
          <mxGeometry relative="1" as="geometry" />
        </mxCell>
        <mxCell id="5g-IkXWtI9sOoJd1yPif-25" value="Informationen zu erkannten HÃ¤nden" style="edgeLabel;html=1;align=center;verticalAlign=middle;resizable=0;points=[];fontSize=11;" vertex="1" connectable="0" parent="5g-IkXWtI9sOoJd1yPif-24">
          <mxGeometry x="0.0036" relative="1" as="geometry">
            <mxPoint y="12" as="offset" />
          </mxGeometry>
        </mxCell>
        <mxCell id="5g-IkXWtI9sOoJd1yPif-19" value="MediaPipe" style="rounded=0;whiteSpace=wrap;html=1;" vertex="1" parent="1">
          <mxGeometry x="460" y="365" width="120" height="60" as="geometry" />
        </mxCell>
        <mxCell id="5g-IkXWtI9sOoJd1yPif-22" value="z.B. Kontrast, und Blurinformationen" style="text;html=1;align=center;verticalAlign=middle;whiteSpace=wrap;rounded=0;fontSize=10;fontStyle=2" vertex="1" parent="1">
          <mxGeometry x="360" y="395" width="90" height="45" as="geometry" />
        </mxCell>
        <mxCell id="5g-IkXWtI9sOoJd1yPif-28" value="" style="edgeStyle=orthogonalEdgeStyle;rounded=0;orthogonalLoop=1;jettySize=auto;html=1;" edge="1" parent="1" source="5g-IkXWtI9sOoJd1yPif-23" target="5g-IkXWtI9sOoJd1yPif-27">
          <mxGeometry relative="1" as="geometry" />
        </mxCell>
        <mxCell id="5g-IkXWtI9sOoJd1yPif-29" value="erkannte Gesten (inkl. Metainformationen (z.B. Geschwindigkeit))" style="edgeLabel;html=1;align=center;verticalAlign=middle;resizable=0;points=[];" vertex="1" connectable="0" parent="5g-IkXWtI9sOoJd1yPif-28">
          <mxGeometry x="0.175" y="-1" relative="1" as="geometry">
            <mxPoint x="-33" y="9" as="offset" />
          </mxGeometry>
        </mxCell>
        <mxCell id="5g-IkXWtI9sOoJd1yPif-23" value="Gesture Recognition Engine" style="rounded=0;whiteSpace=wrap;html=1;" vertex="1" parent="1">
          <mxGeometry x="220" y="470" width="120" height="60" as="geometry" />
        </mxCell>
        <mxCell id="5g-IkXWtI9sOoJd1yPif-31" value="" style="edgeStyle=orthogonalEdgeStyle;rounded=0;orthogonalLoop=1;jettySize=auto;html=1;" edge="1" parent="1" source="5g-IkXWtI9sOoJd1yPif-27" target="5g-IkXWtI9sOoJd1yPif-30">
          <mxGeometry relative="1" as="geometry" />
        </mxCell>
        <mxCell id="5g-IkXWtI9sOoJd1yPif-32" value="Befehle (z.B. Scrollen) via geeigneter Schnittstelle" style="edgeLabel;html=1;align=center;verticalAlign=middle;resizable=0;points=[];" vertex="1" connectable="0" parent="5g-IkXWtI9sOoJd1yPif-31">
          <mxGeometry x="-0.0786" y="1" relative="1" as="geometry">
            <mxPoint x="-131" y="2" as="offset" />
          </mxGeometry>
        </mxCell>
        <mxCell id="5g-IkXWtI9sOoJd1yPif-27" value="Gesture Interpreter" style="whiteSpace=wrap;html=1;rounded=0;" vertex="1" parent="1">
          <mxGeometry x="670" y="470" width="120" height="60" as="geometry" />
        </mxCell>
        <mxCell id="5g-IkXWtI9sOoJd1yPif-30" value="Betriebssystem" style="whiteSpace=wrap;html=1;rounded=0;" vertex="1" parent="1">
          <mxGeometry x="670" y="570" width="120" height="60" as="geometry" />
        </mxCell>
      </root>
    </mxGraphModel>
  </diagram>
</mxfile>
